<?xml version="1.0" encoding="UTF-8" standalone="no"?>
<svg
   width="3840"
   height="2160"
   version="1.1"
   viewBox="0 0 1016 571.5"
   id="svg18"
   sodipodi:docname="kali_lock_input.svg"
   inkscape:version="1.2.2 (b0a8486541, 2022-12-01)"
   inkscape:export-filename="kali_input.png"
   inkscape:export-xdpi="96"
   inkscape:export-ydpi="96"
   xmlns:inkscape="http://www.inkscape.org/namespaces/inkscape"
   xmlns:sodipodi="http://sodipodi.sourceforge.net/DTD/sodipodi-0.dtd"
   xmlns="http://www.w3.org/2000/svg"
   xmlns:svg="http://www.w3.org/2000/svg">
  <sodipodi:namedview
     id="namedview20"
     pagecolor="#ffffff"
     bordercolor="#000000"
     borderopacity="0.25"
     inkscape:showpageshadow="2"
     inkscape:pageopacity="0.0"
     inkscape:pagecheckerboard="0"
     inkscape:deskcolor="#d1d1d1"
     showgrid="false"
     inkscape:zoom="0.58660494"
     inkscape:cx="2149.658"
     inkscape:cy="1005.7876"
     inkscape:window-width="1920"
     inkscape:window-height="1179"
     inkscape:window-x="0"
     inkscape:window-y="21"
     inkscape:window-maximized="1"
     inkscape:current-layer="svg18" />
  <defs
     id="defs10">
    <radialGradient
       id="a"
       cx="508"
       cy="285.75"
       r="508"
       gradientTransform="matrix(1.0025 0 0 1.01 -1.2748 -2.8495)"
       gradientUnits="userSpaceOnUse">
      <stop
         style="stop-color:#313244;stop-opacity:1;"
         offset="0"
         id="stop2" />
      <stop
         style="stop-color:#181825;stop-opacity:1;"
         offset="1"
         id="stop4" />
    </radialGradient>
    <filter
       id="b"
       x="-0.041845734"
       y="-0.05627662"
       width="1.0836915"
       height="1.1125532"
       style="color-interpolation-filters:sRGB">
      <feGaussianBlur
         stdDeviation="2.6078096"
         id="feGaussianBlur7" />
    </filter>
  </defs>
  <rect
     y="1e-5"
     width="1016"
     height="571.5"
     style="fill:#11111b;paint-order:fill markers stroke;fill-opacity:1"
     id="rect12" />
  <path
     d="m 493.43,256.31 c 0,0 -12.282,-0.81727 -33.198,5.7274 -21.315,6.6695 -33.404,16.123 -33.404,16.123 0,0 31.769,-17.738 67.628,-18.746 z m 45.812,19.286 1.5968,-0.10415 c 0,0 -9.1483,-11.1 -26.659,-16.506 9.8431,4.0011 18.411,9.3026 25.062,16.61 z m 2.6132,4.6118 c 0.2455,-0.42566 1.038,1.3522 1.6399,2.0991 0.0255,0.14913 0.0678,0.24015 -0.28112,0.16835 -0.0294,-0.15331 -0.08,-0.19777 -0.08,-0.19777 0,0 -0.84227,-0.50115 -1.1005,-0.85663 -0.25844,-0.3555 -0.3043,-0.97731 -0.17832,-1.2131 z m 21.489,52.837 c 0,0 1.9421,-22.297 -33.088,-27.437 -4.44,-0.65144 -10.055,-1.1528 -15.734,-1.1672 -28.077,0.37122 -29.1,-32.383 -7.9434,-34.036 8.7681,-0.72348 19.238,4.0064 29.474,8.773 -0.038,1.2712 0.0146,2.4009 0.84969,3.4446 0.83488,1.0435 4.0421,2.182 5.0669,2.77 1.0248,0.58822 4.3077,2.6755 6.3196,5.2941 0.43629,-0.81611 4.0798,-3.1878 4.0798,-3.1878 0,0 -0.87285,0.019 -2.9034,-0.73993 -2.0308,-0.75891 -4.4407,-3.0551 -4.4976,-3.1878 -0.0569,-0.13293 -0.0948,-0.34159 0.37981,-0.43653 0.36034,-0.30339 -0.45576,-1.2902 -0.81636,-1.6505 -0.36034,-0.36057 -2.7707,-4.459 -2.8274,-4.5539 -0.0569,-0.0949 -0.076,-0.18967 -0.24665,-0.30361 -0.53149,-0.17093 -2.8657,0.24664 -2.8657,0.24664 0,0 -3.5898,-1.7631 -4.8272,-5.5644 0.0181,0.66582 -0.61557,1.3928 0,2.9224 -1.8717,-0.79179 -3.4794,-2.1422 -4.7475,-5.4793 -0.75474,1.8981 0,3.1049 0,3.1049 0,0 -4.4076,-1.2316 -5.1128,-5.2964 -0.77396,1.8247 0,2.9222 0,2.9222 0,0 -7.1854,-3.7492 -19.125,-3.8036 -7.9934,-0.73321 -9.6576,-14.794 -8.917,-17.162 0,0 -11.53,-6.0764 -34.226,-8.7609 -22.696,-2.6848 -41.309,-0.40458 -41.309,-0.40458 0,0 40.197,-1.9291 72.4,11.108 1.0947,4.8962 4.3879,13.051 6.1616,16.971 -5.0752,3.509 -10.798,6.8086 -11.69,18.511 -0.89092,11.702 9.1704,21.996 21.647,22.314 11.847,0.63106 20.033,0.72069 29.955,5.8645 9.4703,5.2364 17.235,21.192 18.004,35.542 0.82998,-10.647 -3.1656,-33.543 -21.811,-40.496 26.06,4.5604 28.352,23.879 28.352,23.879 z m -70.529,-78.483 -0.9377,-3.0245 c 0,0 -15.472,-2.7475 -36.275,-1.2689 -20.803,1.4787 -41.806,8.7607 -41.806,8.7607 0,0 42.977,-10.814 79.019,-4.4673"
     style="display:inline;opacity:0.3;filter:url(#b);fill:#585b70;fill-opacity:1"
     id="path14" />
  <path
     d="m 493.43,255.25 c 0,0 -12.282,-0.81727 -33.198,5.7274 -21.315,6.6695 -33.404,16.123 -33.404,16.123 0,0 31.769,-17.738 67.628,-18.746 z m 45.812,19.286 1.5968,-0.10415 c 0,0 -9.1483,-11.1 -26.659,-16.506 9.8431,4.0011 18.411,9.3026 25.062,16.61 z m 2.6132,4.6118 c 0.2455,-0.42566 1.038,1.3522 1.6399,2.0991 0.0255,0.14913 0.0678,0.24015 -0.28112,0.16835 -0.0294,-0.15331 -0.08,-0.19777 -0.08,-0.19777 0,0 -0.84227,-0.50115 -1.1005,-0.85663 -0.25844,-0.3555 -0.3043,-0.97731 -0.17832,-1.2131 z m 21.489,52.837 c 0,0 1.9421,-22.297 -33.088,-27.437 -4.44,-0.65144 -10.055,-1.1528 -15.734,-1.1672 -28.077,0.37122 -29.1,-32.383 -7.9434,-34.036 8.7681,-0.72348 19.238,4.0064 29.474,8.773 -0.038,1.2712 0.0146,2.4009 0.84969,3.4446 0.83488,1.0435 4.0421,2.182 5.0669,2.77 1.0248,0.58822 4.3077,2.6755 6.3196,5.2941 0.43629,-0.81611 4.0798,-3.1878 4.0798,-3.1878 0,0 -0.87285,0.019 -2.9034,-0.73993 -2.0308,-0.75891 -4.4407,-3.0551 -4.4976,-3.1878 -0.0569,-0.13293 -0.0948,-0.34159 0.37981,-0.43653 0.36034,-0.30339 -0.45576,-1.2902 -0.81636,-1.6505 -0.36034,-0.36057 -2.7707,-4.459 -2.8274,-4.5539 -0.0569,-0.0949 -0.076,-0.18967 -0.24665,-0.30361 -0.53149,-0.17093 -2.8657,0.24664 -2.8657,0.24664 0,0 -3.5898,-1.7631 -4.8272,-5.5644 0.0181,0.66582 -0.61557,1.3928 0,2.9224 -1.8717,-0.79179 -3.4794,-2.1422 -4.7475,-5.4793 -0.75474,1.8981 0,3.1049 0,3.1049 0,0 -4.4076,-1.2316 -5.1128,-5.2964 -0.77396,1.8247 0,2.9222 0,2.9222 0,0 -7.1854,-3.7492 -19.125,-3.8036 -7.9934,-0.73321 -9.6576,-14.794 -8.917,-17.162 0,0 -11.53,-6.0764 -34.226,-8.7609 -22.696,-2.6848 -41.309,-0.40458 -41.309,-0.40458 0,0 40.197,-1.9291 72.4,11.108 1.0947,4.8962 4.3879,13.051 6.1616,16.971 -5.0752,3.509 -10.798,6.8086 -11.69,18.511 -0.89092,11.702 9.1704,21.996 21.647,22.314 11.847,0.63106 20.033,0.72069 29.955,5.8645 9.4703,5.2364 17.235,21.192 18.004,35.542 0.82998,-10.647 -3.1656,-33.543 -21.811,-40.496 26.06,4.5604 28.352,23.879 28.352,23.879 z m -70.529,-78.483 -0.93769,-3.0245 c 0,0 -15.472,-2.7475 -36.275,-1.2689 -20.803,1.4787 -41.806,8.7607 -41.806,8.7607 0,0 42.977,-10.814 79.019,-4.4673"
     id="path16"
     style="display:inline;fill:#585b70;fill-opacity:1" />
</svg>
