<?xml version="1.0" encoding="UTF-8" standalone="no"?>
<!-- Created with Inkscape (http://www.inkscape.org/) -->

<svg
   width="1920"
   height="1080"
   viewBox="0 0 1920 1080"
   version="1.1"
   id="svg5"
   inkscape:version="1.1.2 (0a00cf5339, 2022-02-04)"
   sodipodi:docname="drawing.svg"
   inkscape:export-filename="/home/ramkumar/Working_Directory/kali_wallpaper/drawing.png"
   inkscape:export-xdpi="96"
   inkscape:export-ydpi="96"
   xmlns:inkscape="http://www.inkscape.org/namespaces/inkscape"
   xmlns:sodipodi="http://sodipodi.sourceforge.net/DTD/sodipodi-0.dtd"
   xmlns="http://www.w3.org/2000/svg"
   xmlns:svg="http://www.w3.org/2000/svg">
  <sodipodi:namedview
     id="namedview7"
     pagecolor="#ffffff"
     bordercolor="#666666"
     borderopacity="1.0"
     inkscape:pageshadow="2"
     inkscape:pageopacity="0.0"
     inkscape:pagecheckerboard="0"
     inkscape:document-units="px"
     showgrid="false"
     inkscape:zoom="0.5"
     inkscape:cx="492"
     inkscape:cy="519"
     inkscape:window-width="1880"
     inkscape:window-height="1013"
     inkscape:window-x="20"
     inkscape:window-y="47"
     inkscape:window-maximized="1"
     inkscape:current-layer="layer1"
     showguides="true"
     inkscape:guide-bbox="true">
    <sodipodi:guide
       position="0,1079.9913"
       orientation="0,-1"
       id="guide3896" />
    <sodipodi:guide
       position="0,1079.9913"
       orientation="1,0"
       id="guide3898" />
    <sodipodi:guide
       position="1920.0124,1079.9913"
       orientation="0,-1"
       id="guide3932" />
    <sodipodi:guide
       position="1920.0124,1079.9913"
       orientation="1,0"
       id="guide3934" />
    <sodipodi:guide
       position="1920.0124,-0.031255516"
       orientation="1,0"
       id="guide9426" />
    <sodipodi:guide
       position="1920.0124,-0.031255516"
       orientation="0,-1"
       id="guide9428" />
  </sodipodi:namedview>
  <defs
     id="defs2">
    <rect
       x="1100.5092"
       y="135.69393"
       width="729.38969"
       height="284.57764"
       id="rect10108" />
    <radialGradient
       id="a"
       cx="508"
       cy="285.75"
       r="508"
       gradientTransform="matrix(1.0025,0,0,1.01,-1.2748,-2.8495)"
       gradientUnits="userSpaceOnUse">
      <stop
         style="stop-color:#23bac2"
         offset="0"
         id="stop77" />
      <stop
         style="stop-color:#3b6ab9"
         offset="1"
         id="stop79" />
    </radialGradient>
    <filter
       id="b"
       x="-0.041845734"
       y="-0.05627662"
       width="1.0836915"
       height="1.1125532"
       style="color-interpolation-filters:sRGB">
      <feGaussianBlur
         stdDeviation="2.6078096"
         id="feGaussianBlur82" />
    </filter>
  </defs>
  <g
     inkscape:label="Layer 1"
     inkscape:groupmode="layer"
     id="layer1"
     style="display:inline">
    <path
       style="fill:#1a1a1a;stroke:#1a1a1a;stroke-width:0.277096"
       d="m 347.92635,1034.8292 c -0.17049,-0.6771 -0.30999,-1.98 -0.30999,-2.8953 0,-0.9154 -0.18548,-3.0735 -0.41219,-4.7958 -2.25301,-17.1167 -15.0142,-42.6635 -25.91188,-51.87336 -7.19956,-6.08449 -17.94822,-10.59944 -30.67986,-12.88701 -4.71566,-0.84729 -8.65189,-1.3106 -20.16718,-2.37377 -22.10698,-2.04107 -23.83768,-2.3412 -29.78,-5.16433 -8.67107,-4.11955 -16.42538,-11.64173 -20.39112,-19.78071 -1.74559,-3.58253 -2.47066,-6.05213 -3.03461,-10.336 -1.2152,-9.2308 0.51693,-20.21952 4.17118,-26.46206 3.37101,-5.75871 9.26592,-11.79397 15.17605,-15.53738 1.37937,-0.87368 1.58266,-1.1078 1.42055,-1.63599 -0.10405,-0.33901 -1.29786,-3.42199 -2.6529,-6.85104 -2.76725,-7.00274 -3.95407,-9.34821 -4.50069,-8.89455 -0.77549,0.6436 -6.21116,1.59178 -13.6108,2.37422 -35.30422,3.73307 -68.52844,13.00559 -102.80245,28.69103 -6.30797,2.88684 -10.71469,4.75342 -10.86567,4.60244 -0.28088,-0.28088 7.93601,-5.70174 13.51079,-8.91336 4.70002,-2.70767 16.01484,-8.31293 21.46219,-10.63217 24.92111,-10.6103 50.41799,-17.73734 71.43743,-19.96862 1.49476,-0.15867 6.00006,-0.4102 10.01179,-0.55895 8.11057,-0.30073 9.46354,-0.54093 9.39842,-1.6685 -0.0981,-1.69862 -0.47623,-3.59694 -0.71649,-3.59694 -0.14485,0 -0.49072,0.28056 -0.7686,0.62346 -0.4681,0.57763 -0.70604,0.61965 -3.23632,0.57157 -1.5021,-0.0285 -4.78613,-0.30289 -7.29785,-0.60967 -10.08367,-1.2316 -20.9621,-1.68561 -40.45064,-1.68818 -20.09514,-0.003 -28.54863,0.40629 -43.36546,2.09791 -12.32384,1.40699 -24.88023,3.35829 -42.395615,6.58839 -4.572077,0.84316 -9.185718,1.60795 -10.252536,1.69954 -1.818197,0.15608 -1.894725,0.1405 -1.22201,-0.24889 2.457344,-1.42236 23.550081,-6.80254 41.328791,-10.54184 17.72758,-3.72855 25.54935,-4.69303 44.13027,-5.44156 9.07888,-0.36574 35.76961,-0.18862 42.25707,0.28043 6.71545,0.48553 12.46625,1.12268 15.28378,1.69333 3.16043,0.64011 3.83581,0.66991 3.83581,0.16928 0,-0.98719 -2.34385,-2.07128 -10.33404,-4.77977 -10.70166,-3.62762 -22.45528,-6.91688 -31.50739,-8.81736 -24.80566,-5.20793 -54.94194,-8.36383 -81.18899,-8.50219 -3.42906,-0.0181 -6.982811,-0.11866 -7.897227,-0.22352 l -1.662573,-0.19065 1.15773,-0.33878 c 5.00363,-1.46419 42.19383,-1.10262 67.42342,0.65551 13.82186,0.96318 25.45809,2.89258 41.1323,6.82012 13.00035,3.25755 25.94391,7.72062 28.3016,9.75867 l 1.03794,0.89724 0.22813,3.38324 c 0.35685,5.29228 1.67421,10.88723 3.84113,16.31364 2.12019,5.3094 5.0205,8.73976 8.75036,10.34955 2.10339,0.90782 5.6154,1.57155 10.92102,2.06396 2.66705,0.24753 6.97732,0.81188 9.5784,1.25413 4.29025,0.72944 6.84687,1.32724 14.76737,3.45296 3.83227,1.02852 4.47217,0.90213 4.47217,-0.88332 0,-0.59984 0.1337,-0.91441 0.38863,-0.91441 0.21375,0 1.67422,1.40279 3.24551,3.11732 5.25449,5.73353 6.04166,5.92379 6.33301,1.53064 l 0.14684,-2.21423 1.76235,2.69534 c 2.02095,3.09085 5.21681,6.50894 6.08575,6.50894 1.12293,0 1.57044,-3.61442 0.63703,-5.1451 -1.75504,-2.87802 -13.83078,-10.61795 -27.39111,-17.5563 -3.31794,-1.69768 -6.34435,-3.33916 -6.72536,-3.64775 l -0.69274,-0.56108 0.96984,0.17958 c 3.08478,0.57121 17.71401,7.41801 24.42682,11.43229 6.71595,4.01616 15.7669,10.91 20.83768,15.87144 3.09238,3.0257 3.55354,3.89247 2.17543,4.08883 -0.85336,0.1216 -2.50376,-0.89775 -5.32141,-3.2867 -1.29542,-1.09832 -2.87655,-2.35583 -3.51362,-2.79446 -1.22906,-0.84622 -2.30539,-1.04392 -2.30539,-0.42345 0,1.0754 4.28895,5.68097 6.49362,6.973 0.86914,0.50934 2.06513,0.8658 3.74888,1.11733 1.35991,0.20315 2.78907,0.57674 3.17591,0.83021 1.40906,0.92325 5.5448,7.25551 6.81321,10.43174 1.03215,2.58463 1.22236,2.82832 3.45491,4.42644 2.72535,1.95088 6.36029,3.76533 8.3395,4.16281 0.82639,0.16596 1.50253,0.40118 1.50253,0.5227 0,0.68211 -6.60459,5.77546 -7.50928,5.79102 -0.60618,0.0104 -2.31653,-1.26571 -4.96519,-3.70466 -2.61869,-2.41135 -5.72174,-4.54107 -9.55462,-6.55762 -6.22931,-3.27736 -8.59148,-5.65455 -9.40527,-9.46503 -0.31056,-1.45413 -5.36903,-4.25099 -14.6223,-8.08474 -26.70716,-11.06512 -43.67959,-12.50437 -55.4197,-4.69957 -7.37747,4.90454 -11.61004,12.63512 -12.04886,22.00665 -0.32554,6.95226 1.23695,12.9002 5.08096,19.34174 3.5207,5.89975 8.8992,10.06816 17.93425,13.89925 4.5388,1.92457 7.89937,2.43 21.09758,3.1731 24.70175,1.39079 35.44716,2.98573 48.55823,7.20751 20.52024,6.60754 34.74537,18.85233 39.9506,34.38892 0.80167,2.39278 2.50977,10.13975 2.51464,11.40505 0,0.3429 -0.16531,0.6234 -0.37028,0.6234 -0.70864,0 -1.3098,-1.0409 -1.58385,-2.7425 -0.51085,-3.17214 -2.61259,-7.48076 -6.50755,-13.34066 -4.67154,-7.02824 -8.89671,-11.25699 -15.92031,-15.93375 -6.61065,-4.4018 -13.48467,-7.74144 -18.59347,-9.03334 -3.62827,-0.91751 -3.4079,-0.33971 1.18887,3.11724 8.5184,6.40618 16.63903,16.51112 20.62463,25.66435 4.47662,10.28096 8.96575,30.36906 8.97122,40.14476 0.002,3.1595 -1.03493,4.5628 -1.62873,2.2047 z"
       id="path3118" />
    <path
       style="fill:#060606;fill-opacity:1;stroke:#1a1a1a;stroke-width:1.41421"
       d=""
       id="path4193" />
    <path
       style="fill:#060606;fill-opacity:1;stroke:#1a1a1a;stroke-width:1.41421"
       d=""
       id="path4232" />
    <path
       style="fill:#060606;fill-opacity:1;stroke:#1a1a1a;stroke-width:1.41421"
       d=""
       id="path4271" />
    <path
       style="fill:#060606;fill-opacity:1;stroke:#1a1a1a;stroke-width:1.41421"
       d=""
       id="path4310" />
    <path
       style="fill:#060606;fill-opacity:1;stroke:#1a1a1a;stroke-width:1.41421"
       d=""
       id="path4349" />
    <path
       style="fill:#060606;fill-opacity:1;stroke:#1a1a1a;stroke-width:1.41421"
       d=""
       id="path4388" />
    <path
       style="fill:#060606;fill-opacity:1;stroke:#1a1a1a;stroke-width:1.41421"
       d=""
       id="path4427" />
    <path
       style="fill:#030000;fill-opacity:1;stroke:#1a1a1a;stroke-width:1.41421"
       d=""
       id="path4466" />
    <path
       style="fill:#030000;fill-opacity:1;stroke:#1a1a1a;stroke-width:0.25"
       d=""
       id="path6033" />
    <rect
       style="fill:#101010;fill-opacity:1;stroke:#0b0000;stroke-width:1.001;stroke-opacity:1"
       id="rect9344"
       width="1919.5145"
       height="1079.4996"
       x="0.00050292502"
       y="0.0092029255"
       inkscape:export-filename="/home/ramkumar/Working_Directory/kali_wallpaper/rect9344.png"
       inkscape:export-xdpi="96"
       inkscape:export-ydpi="96" />
  </g>
  <g
     inkscape:groupmode="layer"
     id="layer2"
     inkscape:label="kaliLogo"
     style="display:inline">
    <path
       d="m 228.6006,860.58308 c 0,0 -23.2636,-1.54444 -62.88103,10.82344 -40.3732,12.60378 -63.27124,30.46866 -63.27124,30.46866 0,0 60.17435,-33.52063 128.09564,-35.42551 z m 86.7735,36.44599 3.02453,-0.19682 c 0,0 -17.32799,-20.97638 -50.49538,-31.19244 18.64402,7.56113 34.87267,17.57971 47.47047,31.38897 z m 4.94972,8.71521 c 0.465,-0.8044 1.96609,2.55534 3.10617,3.9668 0.0483,0.28182 0.12842,0.45383 -0.53248,0.31815 -0.0557,-0.28972 -0.15153,-0.37374 -0.15153,-0.37374 0,0 -1.59536,-0.94706 -2.08448,-1.61883 -0.48952,-0.67181 -0.57638,-1.84689 -0.33776,-2.29247 z m 40.70277,99.84952 c 0,0 3.67858,-42.13613 -62.67269,-51.84952 -8.4099,-1.23107 -19.04539,-2.17852 -29.80211,-2.20573 -53.18125,0.70152 -55.11893,-61.19622 -15.04576,-64.32 16.60784,-1.36721 36.43911,7.57115 55.82734,16.5789 -0.072,2.40226 0.0276,4.53713 1.60941,6.50948 1.58137,1.97196 7.65623,4.12346 9.59733,5.23464 1.94109,1.1116 8.1593,5.05606 11.97009,10.0046 0.82638,-1.54225 7.72763,-6.02419 7.72763,-6.02419 0,0 -1.65328,0.0359 -5.49939,-1.39829 -3.84658,-1.43416 -8.41123,-5.77342 -8.519,-6.02419 -0.10778,-0.25121 -0.17956,-0.64552 0.71941,-0.82494 0.68252,-0.57333 -0.86327,-2.43817 -1.54629,-3.11905 -0.68253,-0.6814 -5.24804,-8.42646 -5.35544,-8.6058 -0.10777,-0.17934 -0.14395,-0.35843 -0.46718,-0.57375 -1.00671,-0.32302 -5.42799,0.46609 -5.42799,0.46609 0,0 -6.79951,-3.33184 -9.1433,-10.5154 0.0343,1.25824 -1.16597,2.63206 0,5.52264 -3.54523,-1.49629 -6.59041,-4.04825 -8.99234,-10.35458 -1.42957,3.58696 0,5.86753 0,5.86753 0,0 -8.34853,-2.32743 -9.68427,-10.00895 -1.46597,3.44826 0,5.52227 0,5.52227 0,0 -13.61002,-7.0851 -36.22507,-7.1879 -15.14047,-1.3856 -18.29267,-27.95717 -16.88988,-32.43213 0,0 -21.83922,-11.48296 -64.8282,-16.55603 -42.98898,-5.07364 -78.244256,-0.76456 -78.244256,-0.76456 0,0 76.137996,-3.64555 137.134386,20.99149 2.07349,9.25267 8.31121,24.66331 11.67082,32.07119 -9.61305,6.63118 -20.45273,12.86664 -22.14228,34.98141 -1.68752,22.11402 17.36985,41.56725 41.00204,42.16819 22.43966,1.19256 37.94494,1.36194 56.73841,11.08252 17.9379,9.89556 32.64519,40.04796 34.10177,67.16606 1.57208,-20.1203 -5.99603,-63.38842 -41.31269,-76.52795 49.36081,8.61808 53.70214,45.12575 53.70214,45.12575 z M 227.4361,857.2794 225.66,851.56381 c 0,0 -29.30585,-5.19213 -68.70925,-2.39792 -39.40341,2.79439 -79.185636,16.55565 -79.185636,16.55565 0,0 81.403646,-20.43591 149.671566,-8.44214"
       id="path91"
       style="stroke-width:1.89194" />
    <path
       style="fill:#ff0000;stroke-width:0.048984"
       d=""
       id="path3598" />
    <path
       style="fill:#ff0000;stroke-width:0.048984"
       d="m 323.06522,910.03919 c -0.12458,-0.0156 -0.16207,-0.0475 -0.18647,-0.15852 -0.0378,-0.17195 -0.0664,-0.19699 -0.75207,-0.65805 -1.37684,-0.9258 -1.72845,-1.37502 -1.87622,-2.39703 -0.0635,-0.43957 -0.0132,-0.94375 0.10903,-1.09099 0.10241,-0.1234 0.26803,-0.0756 0.48018,0.13872 0.27655,0.27931 0.55534,0.69118 1.35162,1.99678 0.3697,0.60618 0.75132,1.21236 0.84804,1.34706 0.34479,0.48021 0.40225,0.5784 0.40225,0.68738 0,0.0983 -0.0985,0.18336 -0.18769,0.16201 -0.018,-0.004 -0.10291,-0.0166 -0.18867,-0.0274 z"
       id="path3637" />
    <text
       xml:space="preserve"
       id="text10106"
       style="font-style:normal;font-variant:normal;font-weight:normal;font-stretch:normal;font-size:26.6667px;line-height:1.25;font-family:'Noto Sans Mono';-inkscape-font-specification:'Noto Sans Mono';white-space:pre;shape-inside:url(#rect10108);fill:#000000;fill-opacity:1;stroke:none"><tspan
         x="1100.5098"
         y="159.95673"
         id="tspan16054">The quieter you become,
</tspan><tspan
         x="1100.5098"
         y="193.2901"
         id="tspan16056">        the more you are able to hear</tspan></text>
  </g>
</svg>
